<?xml version="1.0" encoding="UTF-8"?>
<svg width="135px" height="117px" viewBox="0 0 135 117" version="1.1" xmlns="http://www.w3.org/2000/svg" xmlns:xlink="http://www.w3.org/1999/xlink">
    <!-- Generator: Sketch 46.2 (44496) - http://www.bohemiancoding.com/sketch -->
    <title>crown</title>
    <desc>Created with Sketch.</desc>
    <defs></defs>
    <g id="Page-1" stroke="none" stroke-width="1" fill="none" fill-rule="evenodd">
        <g id="crown" fill-rule="nonzero" fill="#FFDC2F">
            <path d="M18.003,109.758 C18.504,112.004 19.007,114.261 19.508,116.519 C51.109,109.453 83.878,109.453 115.477,116.519 C115.983,114.261 116.495,112.004 116.991,109.758 C84.401,102.47 50.599,102.47 18.003,109.758 Z" id="Shape"></path>
            <path d="M62.585,87.588 C55.199,87.735 47.822,88.242 40.474,89.097 C43.622,90.352 45.948,93.031 46.261,96.448 C46.504,99.048 45.608,101.5 44.041,103.356 C49.67,102.745 55.334,102.359 60.998,102.191 C59.2,100.566 57.974,98.267 57.86,95.652 C57.71,92.229 59.637,89.255 62.585,87.588 Z" id="Shape"></path>
            <path d="M94.531,89.097 C87.19,88.243 79.798,87.736 72.409,87.588 C75.362,89.265 77.298,92.229 77.135,95.656 C77.024,98.282 75.8,100.571 74.002,102.195 C79.66,102.375 85.318,102.755 90.956,103.366 C89.405,101.499 88.499,99.053 88.741,96.458 C89.058,93.041 91.378,90.352 94.531,89.097 Z" id="Shape"></path>
            <path d="M107.895,99.095 C107.42,101.673 105.891,103.767 103.876,105.138 C107.763,105.792 111.633,106.552 115.488,107.406 C116.537,102.671 117.597,97.925 118.663,93.178 C113.885,92.123 109.097,91.206 104.287,90.436 C106.998,92.492 108.506,95.72 107.895,99.095 Z" id="Shape"></path>
            <path d="M30.715,90.436 C25.903,91.207 21.115,92.124 16.34,93.178 C17.4,97.924 18.462,102.659 19.514,107.406 C23.371,106.542 27.242,105.782 31.126,105.138 C29.117,103.767 27.588,101.658 27.113,99.074 C26.491,95.72 28.01,92.492 30.715,90.436 Z" id="Shape"></path>
            <path d="M109.593,78.286 L111.844,80.627 C113.548,78.981 115.087,77.362 116.438,75.786 L113.97,73.666 C112.693,75.164 111.217,76.714 109.593,78.286 Z" id="Shape"></path>
            <path d="M121.104,57.107 L121.104,57.16 L124.358,57.107 C124.358,54.766 123.989,52.461 123.245,50.249 L120.16,51.291 C120.788,53.158 121.104,55.125 121.104,57.107 Z" id="Shape"></path>
            <path d="M119.934,63.499 C119.538,65.103 118.774,66.821 117.671,68.645 L120.456,70.333 C121.727,68.229 122.612,66.193 123.04,64.479 L123.187,64.068 L120.113,63.013 L119.934,63.499 Z" id="Shape"></path>
            <path d="M21.022,73.677 L18.554,75.802 C19.904,77.373 21.449,78.988 23.144,80.638 L25.401,78.291 C23.78,76.714 22.307,75.164 21.022,73.677 Z" id="Shape"></path>
            <path d="M14.845,51.291 L11.762,50.249 C11.016,52.461 10.638,54.766 10.638,57.107 L10.638,57.16 L13.895,57.107 C13.896,55.125 14.212,53.158 14.845,51.291 Z" id="Shape"></path>
            <path d="M14.887,62.993 L11.902,64.29 C12.382,66.199 13.268,68.229 14.536,70.333 L17.323,68.645 C16.216,66.832 15.459,65.102 15.06,63.499 L14.887,62.993 Z" id="Shape"></path>
            <path d="M37.724,73.856 C38.939,75.538 40.247,77.199 41.623,78.855 L44.123,76.766 C42.794,75.174 41.531,73.56 40.355,71.947 L37.724,73.856 Z" id="Shape"></path>
            <path d="M51.748,28.125 L52.584,24.981 C50.321,24.367 47.972,24.253 45.726,24.647 L46.267,27.851 C48.064,27.563 49.934,27.655 51.748,28.125 Z" id="Shape"></path>
            <path d="M34.198,68.551 L36.99,66.879 C35.883,65.033 34.965,63.24 34.269,61.548 L31.26,62.808 C32.022,64.638 33.009,66.579 34.198,68.551 Z" id="Shape"></path>
            <path d="M32.556,55.837 C32.044,53.738 31.778,51.884 31.725,50.018 L28.469,50.126 C28.534,52.23 28.824,54.287 29.386,56.613 L32.556,55.837 Z" id="Shape"></path>
            <path d="M60.702,34.725 L63.347,32.829 C61.987,30.928 60.42,29.306 58.688,28.012 L56.737,30.614 C58.2,31.716 59.534,33.087 60.702,34.725 Z" id="Shape"></path>
            <path d="M41.164,29.831 L39.103,27.3 C37.352,28.454 35.765,29.912 34.378,31.613 L36.899,33.67 C38.074,32.217 39.424,30.993 41.164,29.831 Z" id="Shape"></path>
            <path d="M33.89,38.601 L30.915,37.29 C30.035,39.27 29.381,41.388 28.972,43.579 L32.168,44.18 C32.534,42.242 33.112,40.367 33.89,38.601 Z" id="Shape"></path>
            <path d="M78.205,30.675 L76.232,28.083 C74.503,29.399 72.952,31.031 71.613,32.932 L74.276,34.799 C75.421,33.174 76.739,31.779 78.205,30.675 Z" id="Shape"></path>
            <path d="M102.483,55.694 L105.627,56.49 C106.175,54.384 106.471,52.203 106.534,49.983 L103.274,49.893 C103.228,51.874 102.958,53.817 102.483,55.694 Z" id="Shape"></path>
            <path d="M100.807,68.403 C101.973,66.43 102.958,64.49 103.734,62.655 L100.734,61.405 C100.016,63.098 99.099,64.901 98.012,66.737 L100.807,68.403 Z" id="Shape"></path>
            <path d="M106.001,43.449 C105.579,41.253 104.92,39.14 104.034,37.163 L101.059,38.497 C101.84,40.237 102.425,42.109 102.805,44.06 L106.001,43.449 Z" id="Shape"></path>
            <path d="M98.054,33.583 L100.554,31.51 C99.178,29.846 97.616,28.438 95.903,27.3 L95.555,27.073 L93.783,29.805 L94.121,30.021 C95.555,30.97 96.873,32.175 98.054,33.583 Z" id="Shape"></path>
            <path d="M88.641,27.845 L89.163,24.631 C86.885,24.27 84.549,24.404 82.303,25.019 L83.173,28.157 C84.955,27.671 86.843,27.563 88.641,27.845 Z" id="Shape"></path>
            <path d="M97.306,73.719 L94.674,71.805 C93.498,73.435 92.248,75.048 90.93,76.652 L93.446,78.724 C94.806,77.062 96.098,75.386 97.306,73.719 Z" id="Shape"></path>
            <path d="M135,55.483 C135,43.504 128.229,32.467 117.312,26.661 C113.003,24.389 108.2,23.091 103.306,22.751 C102.372,21.947 101.397,21.18 100.379,20.499 C91.161,14.44 79.332,15.331 70.758,22.087 L70.758,13.902 L79.09,13.902 L79.09,7.394 L70.758,7.394 L70.758,0.481 L64.248,0.481 L64.248,7.394 L55.91,7.394 L55.91,13.902 L64.248,13.902 L64.248,22.065 C55.663,15.32 43.858,14.434 34.619,20.499 C33.64,21.143 32.723,21.87 31.832,22.643 C26.582,22.751 21.398,24.122 16.792,26.693 C6.436,32.504 0,43.536 0,55.473 C0,58.916 0.54,62.328 1.524,65.308 C2.9,71.583 7.09,78.159 12.408,84.498 C12.392,84.498 12.382,84.498 12.366,84.498 C12.867,86.755 13.37,88.991 13.871,91.248 C49.187,83.349 85.819,83.349 121.141,91.248 C121.636,89.001 122.148,86.755 122.644,84.498 C122.469,84.466 122.29,84.435 122.122,84.397 C127.601,78.18 131.899,71.762 133.312,65.655 C134.431,62.36 135,58.942 135,55.483 Z M70.759,31.458 C77.287,22.762 88.288,20.35 96.805,25.95 C103.824,30.583 108.174,39.482 108.174,49.175 C108.174,51.999 107.8,54.788 106.998,57.721 C105.68,64.803 100.712,72.613 94.647,79.901 C88.203,79.205 81.738,78.836 75.262,78.646 C76.48,77.022 77.266,75.071 77.266,72.892 C77.266,68.653 74.544,65.077 70.758,63.727 L70.758,31.458 L70.759,31.458 Z M67.5,69.638 C69.298,69.638 70.759,71.098 70.759,72.891 C70.759,74.684 69.298,76.145 67.5,76.145 C65.701,76.145 64.243,74.684 64.243,72.886 C64.243,71.087 65.701,69.638 67.5,69.638 Z M38.201,25.955 C41.375,23.864 44.803,22.807 48.394,22.807 C54.437,22.807 60.141,25.982 64.249,31.434 L64.249,63.721 C60.47,65.071 57.741,68.646 57.741,72.886 C57.741,75.059 58.519,77.01 59.729,78.634 C53.288,78.823 46.838,79.193 40.423,79.884 C34.316,72.528 29.294,64.622 27.949,57.435 C27.205,54.73 26.834,51.945 26.834,49.159 C26.826,39.486 31.185,30.587 38.201,25.955 Z M7.791,63.626 C6.939,60.979 6.507,58.241 6.507,55.483 C6.507,45.896 11.67,37.045 19.97,32.385 C21.75,31.396 23.646,30.645 25.597,30.102 C23.609,33.361 22.114,37.002 21.244,40.902 L19.854,39.104 C17.982,40.554 16.35,42.218 14.989,44.056 L17.61,45.984 C18.559,44.692 19.714,43.532 20.972,42.451 C20.579,44.644 20.315,46.881 20.315,49.169 C20.315,52.544 20.769,55.906 21.599,58.906 C22.944,66.105 27.339,73.719 32.869,80.902 C28.469,81.508 24.078,82.231 19.699,83.069 C13.813,76.599 9.17,69.849 7.791,63.626 Z M127.058,63.879 C125.645,69.954 120.846,76.588 114.724,82.969 C110.552,82.178 106.376,81.492 102.178,80.912 C107.662,73.793 112.013,66.263 113.326,59.169 C114.222,55.947 114.676,52.58 114.676,49.169 C114.676,46.885 114.412,44.65 114.023,42.463 C115.278,43.536 116.427,44.696 117.387,45.988 L120.002,44.055 C118.652,42.217 117.002,40.554 115.14,39.103 L113.748,40.901 C112.925,37.162 111.501,33.673 109.655,30.526 C111.227,31.029 112.766,31.628 114.264,32.416 C123.039,37.083 128.492,45.916 128.492,55.482 C128.492,58.23 128.039,60.952 127.058,63.879 Z" id="Shape"></path>
        </g>
    </g>
</svg>